<?xml version="1.0" standalone="no"?>
<!DOCTYPE svg PUBLIC "-//W3C//DTD SVG 20010904//EN"
 "http://www.w3.org/TR/2001/REC-SVG-20010904/DTD/svg10.dtd">
<svg version="1.0" xmlns="http://www.w3.org/2000/svg"
 width="356.000000pt" height="372.000000pt" viewBox="0 0 356.000000 372.000000"
 preserveAspectRatio="xMidYMid meet">
<metadata>
Created by potrace 1.13, written by Peter Selinger 2001-2015
</metadata>
<g transform="translate(0.000000,372.000000) scale(0.100000,-0.100000)"
fill="#000000" stroke="none">
<path d="M3252 3633 l3 -88 153 -3 152 -3 0 89 0 89 -155 2 -156 2 3 -88z"/>
<path d="M1615 3463 c-45 -9 -193 -45 -230 -56 -126 -35 -276 -134 -358 -236
-33 -40 -66 -71 -81 -75 -17 -4 -31 -18 -40 -41 -8 -19 -31 -44 -53 -58 -75
-48 -178 -199 -167 -244 3 -12 1 -24 -5 -27 -20 -13 -12 -100 13 -149 14 -25
28 -63 32 -84 4 -21 13 -56 21 -78 8 -22 22 -81 32 -130 22 -116 13 -259 -20
-312 -31 -50 -32 -199 -1 -303 12 -41 31 -138 42 -215 11 -77 24 -149 29 -160
5 -11 16 -45 26 -75 10 -30 33 -88 51 -128 19 -41 34 -78 34 -83 0 -5 50 -58
110 -118 61 -59 110 -113 110 -118 0 -5 -11 -22 -24 -38 -32 -37 -67 -108 -72
-147 -2 -18 -13 -39 -23 -48 -28 -21 -53 -86 -53 -138 0 -54 -8 -78 -43 -116
-14 -17 -23 -36 -20 -44 7 -19 -13 -42 -36 -42 -23 0 -44 -63 -22 -68 21 -6
15 -38 -8 -39 -14 -1 -19 3 -15 13 8 21 -8 17 -30 -7 -10 -12 -29 -25 -40 -29
-12 -5 -31 -22 -44 -39 l-21 -31 73 0 c72 0 73 1 97 35 13 19 27 35 32 35 4 0
16 -16 25 -35 l16 -35 249 0 c215 0 249 2 249 15 0 8 4 15 9 15 5 0 17 8 27
17 10 11 19 13 21 7 2 -6 17 -8 33 -6 23 3 30 0 30 -12 0 -9 7 -16 15 -16 8 0
15 -4 15 -10 0 -5 21 -10 48 -10 39 0 49 4 57 22 16 34 39 43 82 32 24 -6 42
-17 48 -31 9 -22 15 -23 125 -22 105 1 112 2 85 14 -18 8 -34 10 -39 4 -17
-16 -29 -10 -23 13 5 16 -3 30 -30 55 -19 19 -32 37 -28 41 4 4 9 2 12 -4 2
-6 22 -9 47 -7 25 2 47 -1 51 -7 15 -24 27 -8 23 33 -3 29 0 50 12 67 10 14
20 39 24 55 5 21 19 39 46 56 42 28 120 120 120 143 0 7 17 29 38 47 50 45 89
98 104 142 7 19 33 57 58 83 57 60 100 124 100 148 0 10 16 33 37 52 36 33 57
37 46 8 -5 -14 -3 -15 15 -5 30 16 39 68 15 87 -17 14 -17 15 5 31 l22 16 -23
31 c-26 35 -97 179 -97 198 0 7 -6 21 -13 30 -11 14 -13 49 -8 115 1 7 21 21
45 32 39 17 46 25 56 63 7 23 31 106 55 183 73 239 78 261 73 308 -6 55 -38
122 -78 167 -33 37 -35 41 -19 57 10 10 32 121 49 253 10 76 7 129 -11 230 -5
30 -11 75 -13 100 -6 78 -83 264 -120 291 -5 4 -6 11 -3 16 4 5 -20 22 -53 38
-32 16 -61 34 -64 42 -3 8 -21 13 -46 13 -33 0 -40 3 -38 17 2 10 -5 19 -17
22 -11 3 -32 14 -47 24 -16 11 -35 16 -46 12 -12 -3 -26 1 -35 9 -8 8 -18 12
-22 8 -3 -4 -12 1 -19 10 -15 21 -103 45 -195 54 -36 4 -85 15 -109 26 -24 10
-55 18 -68 18 -14 0 -33 4 -43 10 -21 10 -144 20 -176 13z m-197 -694 c-10 -7
-9 -9 5 -9 9 0 17 -4 17 -10 0 -5 8 -10 18 -10 10 0 23 -5 28 -10 7 -7 20 -7
35 -2 28 10 52 5 43 -10 -3 -5 4 -12 16 -15 18 -5 21 -11 16 -35 -4 -20 -2
-27 6 -22 8 5 9 -4 5 -30 -7 -45 -23 -66 -47 -66 -10 0 -20 -5 -22 -11 -5 -14
56 -79 73 -79 7 0 23 -10 36 -22 20 -18 26 -20 33 -9 7 12 14 11 44 -3 34 -16
35 -17 18 -36 -9 -11 -26 -20 -38 -20 -12 0 -29 -11 -38 -25 -9 -14 -26 -25
-37 -25 -30 0 -74 -26 -92 -53 -18 -28 -68 -49 -87 -37 -7 5 -21 3 -30 -3 -13
-8 -27 -7 -51 4 -19 7 -40 12 -46 11 -7 -2 -13 4 -13 13 0 8 -9 15 -21 15 -11
0 -30 5 -42 12 -13 7 -69 13 -137 14 -153 2 -142 0 -135 27 8 25 63 80 85 85
8 2 18 9 22 17 4 7 24 16 43 19 28 6 39 15 54 46 l19 40 -23 -6 c-18 -4 -23
-1 -27 20 -3 14 -3 28 -1 30 3 2 6 28 8 56 1 33 10 62 24 80 11 16 21 34 21
40 0 9 49 15 92 11 10 -1 24 1 32 6 20 11 111 13 94 2z m27 -776 c-4 -72 -2
-110 6 -120 8 -9 10 -38 6 -86 -5 -63 -10 -75 -35 -98 -26 -23 -36 -26 -81
-21 -40 4 -55 1 -64 -11 -7 -9 -23 -18 -37 -19 -21 -3 -25 2 -28 28 -4 36 22
68 49 61 21 -6 29 17 29 84 0 35 6 52 25 73 14 15 25 36 25 47 0 22 54 135 77
161 27 31 33 9 28 -99z m-325 -110 c-1 -14 -24 -39 -42 -46 -21 -8 -24 -27 -4
-27 8 0 21 -3 30 -6 10 -4 16 -1 16 8 0 16 60 48 90 48 10 0 22 5 25 10 9 15
35 12 41 -5 9 -21 -4 -65 -19 -66 -6 0 -32 -40 -56 -88 -25 -51 -52 -91 -65
-97 -11 -5 -30 -23 -41 -41 -15 -23 -27 -31 -47 -31 -29 1 -38 13 -15 21 9 3
9 9 1 23 -8 14 -24 19 -57 21 -26 1 -49 -3 -52 -8 -4 -5 -15 -9 -26 -9 -13 0
-19 7 -19 23 0 28 -9 41 -37 56 -20 10 -23 20 -23 71 0 33 4 60 9 60 5 0 12
18 16 39 6 36 9 39 32 35 14 -3 38 -11 52 -18 22 -12 29 -12 51 4 23 16 41 21
123 28 9 1 17 -1 17 -5z m697 -56 c47 -14 108 -71 96 -90 -4 -7 -9 -21 -10
-31 -5 -29 -8 -30 -58 -15 -59 18 -95 55 -102 108 -6 47 1 50 74 28z m323
-1176 c0 -10 -11 -29 -25 -42 -41 -38 -121 -142 -140 -182 -9 -20 -40 -60 -68
-89 -65 -67 -97 -115 -97 -144 0 -28 -18 -31 -60 -9 -35 18 -37 26 -10 50 15
14 23 15 34 6 10 -8 16 -9 21 -1 3 5 -1 10 -9 10 -29 0 -17 25 57 115 50 62
80 91 97 94 35 4 147 132 134 152 -5 9 44 58 59 59 4 0 7 -9 7 -19z"/>
<path d="M2722 986 c-11 -18 -23 -49 -27 -67 -8 -35 -33 -90 -45 -99 -4 -3
-33 -41 -65 -85 -32 -44 -79 -102 -103 -130 -24 -27 -58 -70 -75 -95 -17 -25
-52 -68 -78 -96 -26 -28 -55 -69 -64 -90 -8 -21 -38 -74 -66 -117 -28 -43 -62
-104 -76 -135 -14 -32 -30 -60 -36 -64 -7 -4 17 -7 53 -7 l65 0 43 52 c41 49
69 96 105 177 8 19 22 44 31 55 58 71 96 132 96 150 0 29 27 82 49 97 23 16
96 134 104 170 4 15 14 33 23 40 8 7 23 21 33 31 10 10 31 19 47 20 18 2 29 8
29 17 0 9 10 26 22 39 l21 23 -8 -36 c-4 -20 -13 -43 -20 -51 -7 -8 -10 -21
-6 -30 3 -9 -9 -30 -30 -52 -48 -52 -86 -117 -88 -154 -2 -25 -17 -44 -69 -91
-58 -52 -67 -64 -67 -94 0 -39 9 -43 35 -14 23 26 38 26 25 0 -5 -11 -15 -29
-20 -40 -5 -11 -10 -27 -10 -35 0 -9 -8 -18 -17 -22 -10 -3 -26 -13 -35 -21
-16 -13 -17 -12 -8 17 8 28 7 30 -10 21 -36 -19 -112 -125 -123 -172 -4 -14
-10 -34 -13 -45 -4 -11 0 -9 12 7 26 36 38 42 51 24 6 -9 20 -14 30 -12 10 2
23 -3 29 -10 9 -12 16 -10 42 14 33 32 84 122 76 136 -3 4 -14 4 -24 -2 -17
-9 -18 -7 -10 18 4 15 9 34 11 42 2 8 15 23 29 32 23 17 26 17 38 1 11 -16 13
-15 27 3 29 36 65 94 65 104 0 16 -27 11 -34 -6 -4 -9 -9 -14 -12 -11 -3 3 -1
13 4 24 5 10 17 35 26 56 17 40 43 58 56 37 12 -20 45 4 79 61 39 63 51 109
27 109 -9 0 -16 3 -16 8 1 11 26 42 35 42 4 0 2 -7 -5 -15 -8 -9 -9 -15 -2
-15 6 0 14 5 18 11 4 7 23 9 50 5 38 -5 46 -3 58 17 8 12 18 34 21 50 4 15 13
27 20 27 7 0 23 8 35 18 l23 19 -34 25 c-45 34 -134 78 -157 78 -10 0 -22 4
-27 9 -21 19 -107 61 -124 61 -11 0 -28 -15 -39 -34z"/>
<path d="M3169 747 c-18 -18 -43 -45 -54 -61 -19 -26 -23 -28 -42 -16 -17 11
-26 11 -57 -4 -36 -17 -126 -119 -126 -143 0 -7 -15 -41 -34 -75 -18 -35 -46
-96 -61 -136 -15 -40 -43 -91 -62 -115 -32 -38 -103 -168 -103 -189 0 -4 20
-8 44 -8 44 0 56 10 56 46 0 8 25 41 56 72 31 31 64 75 74 97 10 22 48 71 85
109 37 38 78 86 91 107 21 34 109 98 119 87 15 -14 -24 -82 -80 -143 -36 -38
-65 -76 -65 -83 0 -14 -40 -75 -53 -81 -5 -2 -23 -19 -40 -38 -18 -20 -37 -41
-44 -48 -17 -18 -73 -107 -73 -117 0 -4 34 -8 75 -8 58 0 77 4 81 15 4 8 12
15 19 15 7 0 15 6 18 14 3 8 27 41 52 74 34 44 48 72 53 107 7 45 10 49 77 91
39 24 80 48 92 54 12 5 27 18 33 29 15 28 81 61 127 63 45 1 103 -26 110 -53
13 -49 23 -8 23 96 0 113 0 115 -23 115 -32 0 -76 -22 -82 -41 -7 -20 -62 -45
-88 -41 -10 2 -45 19 -78 39 -50 29 -58 37 -48 49 7 8 19 12 27 9 15 -6 131
22 146 36 8 7 -64 59 -84 59 -5 0 -10 3 -10 8 0 13 -61 42 -89 42 -17 0 -40
-12 -62 -33z"/>
<path d="M955 566 c-163 -86 -280 -166 -291 -198 -3 -9 -28 -28 -57 -42 -61
-29 -137 -95 -137 -119 0 -9 -14 -27 -31 -39 -35 -26 -99 -123 -99 -150 0 -32
52 -22 99 18 l42 36 -6 -28 c-6 -24 -3 -22 14 12 22 41 115 144 132 144 16 0
10 -20 -13 -38 -54 -43 -108 -119 -108 -152 0 -6 27 -10 68 -10 l67 0 87 79
c92 83 162 164 179 207 11 30 3 46 -11 24 -8 -13 -10 -12 -10 2 0 18 25 48 41
48 9 0 49 72 49 90 0 20 -54 -18 -114 -79 -32 -34 -62 -61 -67 -61 -4 0 -14
-6 -21 -14 -15 -14 -78 -49 -78 -43 0 20 40 73 83 110 28 24 73 64 98 88 25
24 62 54 82 66 36 22 37 22 37 2 0 -12 4 -17 11 -14 6 4 8 14 5 22 -3 8 4 27
16 43 12 17 20 32 17 34 -2 2 -40 -15 -84 -38z"/>
<path d="M3439 342 c-30 -19 -99 -87 -99 -96 0 -3 9 -6 20 -6 13 0 20 -7 20
-20 0 -11 -4 -20 -9 -20 -5 0 -11 -6 -14 -14 -4 -11 4 -9 29 6 64 38 58 -1 -9
-56 -39 -31 -60 -29 -39 4 10 17 10 20 -3 20 -8 0 -15 -4 -15 -9 0 -15 -32
-22 -46 -10 -19 16 -45 -2 -91 -63 -22 -29 -43 -59 -47 -65 -6 -10 20 -13 116
-13 l123 0 23 33 c28 42 29 60 2 52 -26 -8 -26 9 1 46 17 25 66 59 83 59 2 0
6 -9 8 -20 3 -19 3 -19 36 1 l33 21 -2 84 c-1 46 -5 84 -8 84 -3 -1 -17 -7
-31 -15 -32 -18 -40 -18 -40 0 0 19 -9 19 -41 -3z"/>
</g>
</svg>
